HIERARCHY
ROOT Hips
{
    OFFSET 0.000000 0.000000 0.000000
    CHANNELS 6 Xposition Yposition Zposition Zrotation Xrotation Yrotation
    JOINT Spine
    {
        OFFSET -0.000000 14.517291 0.000000
        CHANNELS 3 Zrotation Xrotation Yrotation
        JOINT Spine1
        {
            OFFSET -0.000000 37.558300 0.000000
            CHANNELS 3 Zrotation Xrotation Yrotation
            JOINT Neck
            {
                OFFSET -0.000000 37.404057 3.400369
                CHANNELS 3 Zrotation Xrotation Yrotation
                JOINT Head
                {
                    OFFSET -0.000000 24.785618 -3.540803
                    CHANNELS 3 Zrotation Xrotation Yrotation
                    End Site
                    {
                        OFFSET -0.000000 35.408028 0.000000
                    }
                }
            }
            JOINT LeftShoulder
            {
                OFFSET 6.992933 33.973492 -0.192664
                CHANNELS 3 Zrotation Xrotation Yrotation
                JOINT LeftArm
                {
                    OFFSET 21.527611 0.000000 0.000000
                    CHANNELS 3 Zrotation Xrotation Yrotation
                    JOINT LeftForeArm
                    {
                        OFFSET 56.353916 0.000000 0.000000
                        CHANNELS 3 Zrotation Xrotation Yrotation
                        JOINT LeftHand
                        {
                            OFFSET 47.774071 0.000000 0.000000
                            CHANNELS 3 Zrotation Xrotation Yrotation
                            End Site
                            {
                                OFFSET 26.556021 0.000000 0.000000
                            }
                        }
                    }
                }
            }
            JOINT RightShoulder
            {
                OFFSET -7.065357 33.973492 -0.192664
                CHANNELS 3 Zrotation Xrotation Yrotation
                JOINT RightArm
                {
                    OFFSET -21.527611 0.000000 0.000000
                    CHANNELS 3 Zrotation Xrotation Yrotation
                    JOINT RightForeArm
                    {
                        OFFSET -56.353916 0.000000 0.000000
                        CHANNELS 3 Zrotation Xrotation Yrotation
                        JOINT RightHand
                        {
                            OFFSET -47.774071 0.000000 0.000000
                            CHANNELS 3 Zrotation Xrotation Yrotation
                            End Site
                            {
                                OFFSET -26.556021 0.000000 0.000000
                            }
                        }
                    }
                }
            }
        }
    }
    JOINT LeftUpLeg
    {
        OFFSET 17.704014 0.000000 0.000000
        CHANNELS 3 Zrotation Xrotation Yrotation
        JOINT LeftLeg
        {
            OFFSET -0.000000 -81.181816 0.000000
            CHANNELS 3 Zrotation Xrotation Yrotation
            JOINT LeftFoot
            {
                OFFSET -0.000000 -62.821102 0.000000
                CHANNELS 3 Zrotation Xrotation Yrotation
                JOINT LeftToeBase
                {
                    OFFSET -0.000000 -11.507608 26.556021
                    CHANNELS 3 Zrotation Xrotation Yrotation
                    End Site
                    {
                        OFFSET -0.000000 0.000000 7.081605
                    }
                }
            }
        }
    }
    JOINT RightUpLeg
    {
        OFFSET -17.704014 0.000000 0.000000
        CHANNELS 3 Zrotation Xrotation Yrotation
        JOINT RightLeg
        {
            OFFSET -0.000000 -81.181816 0.000000
            CHANNELS 3 Zrotation Xrotation Yrotation
            JOINT RightFoot
            {
                OFFSET -0.000000 -62.821102 0.000000
                CHANNELS 3 Zrotation Xrotation Yrotation
                JOINT RightToeBase
                {
                    OFFSET -0.000000 -11.507608 26.556021
                    CHANNELS 3 Zrotation Xrotation Yrotation
                    End Site
                    {
                        OFFSET -0.000000 0.000000 7.081605
                    }
                }
            }
        }
    }
}
MOTION
Frames:    5
Frame Time:    0.008333
20.992712    147.287064    48.292469    3.945951    2.589821    -58.212261    2.963666    -0.631077    4.214851    2.282322    -2.721562    1.454021    16.956772    -0.128838    17.505878    -13.898008    9.116306    14.841500    9.448074    1.691698    -17.134233    -3.459753    -7.275573    -21.734158    -4.396410    -0.748660    -84.494469    -2.953585    -3.998448    -28.284658    -9.759102    2.119125    3.356376    44.298386    5.435071    93.870941    27.420002    -34.814270    106.698692    43.921265    -45.740128    55.411755    35.338352    -22.733868    25.957325    -27.965899    40.037670    4.116883    -2.070328    -12.537715    44.391220    0.000000    0.000000    0.000000    -29.143045    -8.343823    -18.635384    4.138586    31.488132    -6.875688    19.379827    -11.937312    6.515015    0.000000    0.000000    0.000000    
21.015163    147.290802    48.279919    3.941854    2.590938    -58.231766    2.936209    -0.639737    4.210165    2.311604    -2.704651    1.452778    16.985445    -0.079224    17.526253    -13.963075    9.053226    14.854361    9.467497    1.689441    -17.134951    -3.470915    -7.242141    -21.678844    -4.362549    -0.828913    -84.537201    -2.985751    -4.045098    -28.193441    -9.752690    2.081498    3.273844    44.371544    5.217287    93.672134    27.400379    -34.781147    106.624794    43.904163    -45.674110    55.369545    35.343491    -22.733963    25.949669    -27.965990    40.033592    4.130738    -2.087332    -12.530930    44.398628    0.000000    0.000000    0.000000    -29.137009    -8.364102    -18.641956    4.125301    31.492575    -6.848348    19.378069    -11.925179    6.511422    0.000000    0.000000    0.000000    
21.042023    147.291229    48.261307    3.933263    2.596962    -58.246910    2.929967    -0.640125    4.196186    2.314253    -2.693115    1.447983    17.037958    -0.021440    17.546980    -14.055124    8.991584    14.863669    9.503526    1.694040    -17.123867    -3.482924    -7.196146    -21.551058    -4.397011    -0.909291    -84.728882    -2.699986    -4.289204    -26.295385    -9.738728    2.043751    3.190881    44.418880    4.943255    93.419724    27.483644    -34.662624    106.591934    43.872101    -45.649197    55.405594    35.354504    -22.737274    25.937994    -27.967375    40.030834    4.142119    -2.096095    -12.535632    44.405632    0.000000    0.000000    0.000000    -29.126259    -8.383945    -18.645119    4.113552    31.495005    -6.856025    19.385761    -11.900005    6.540667    0.000000    0.000000    0.000000    
21.069927    147.288956    48.246414    3.930814    2.603891    -58.262878    2.945632    -0.677090    4.167166    2.291921    -2.604182    1.435611    17.051851    -0.022419    17.584538    -14.095641    8.931405    14.890806    9.542535    1.660292    -17.045200    -3.489532    -7.092214    -21.596441    -4.210862    -1.104955    -84.629829    -2.771122    -4.261823    -27.457655    -9.767579    1.934013    3.115264    44.450726    4.728727    93.215111    27.527088    -34.696178    106.585709    43.883968    -45.729691    55.373180    35.363464    -22.748230    25.948851    -27.947344    40.048218    4.106879    -2.092854    -12.533115    44.415672    0.000000    0.000000    0.000000    -29.120779    -8.412851    -18.653803    4.095603    31.510849    -6.809711    19.368135    -11.903504    6.528096    0.000000    0.000000    0.000000    
21.090818    147.284027    48.223995    3.921400    2.613116    -58.278553    2.913734    -0.673757    4.155345    2.330224    -2.604000    1.432605    17.084097    0.025697    17.592848    -14.154494    8.871805    14.890896    9.564083    1.661231    -17.021534    -3.497335    -7.030960    -21.577377    -4.141407    -1.221933    -84.640144    -2.927720    -4.271026    -27.715952    -9.778687    1.855524    3.038745    44.457054    4.488549    92.943733    27.475847    -34.706295    106.491264    43.925098    -45.604389    55.394005    35.387951    -22.751183    25.947805    -27.961039    40.055504    4.109852    -2.093268    -12.538544    44.438740    0.000000    0.000000    0.000000    -29.106817    -8.434719    -18.643642    4.096994    31.522511    -6.812563    19.366041    -11.902808    6.540242    0.000000    0.000000    0.000000    
